<mxfile host="Electron" agent="Mozilla/5.0 (Windows NT 10.0; Win64; x64) AppleWebKit/537.36 (KHTML, like Gecko) draw.io/24.7.8 Chrome/128.0.6613.36 Electron/32.0.1 Safari/537.36" version="24.7.8">
  <diagram name="Page-1" id="13e1069c-82ec-6db2-03f1-153e76fe0fe0">
    <mxGraphModel dx="1720" dy="828" grid="1" gridSize="10" guides="1" tooltips="1" connect="1" arrows="1" fold="1" page="1" pageScale="1" pageWidth="1700" pageHeight="1100" background="none" math="0" shadow="0">
      <root>
        <mxCell id="0" />
        <mxCell id="1" parent="0" />
        <mxCell id="bkDttgfNvHvTQFwvmpQR-45" value="&lt;span style=&quot;background-color: initial;&quot;&gt;SuccessScreen&lt;/span&gt;" style="shape=umlLifeline;perimeter=lifelinePerimeter;whiteSpace=wrap;html=1;container=0;collapsible=0;recursiveResize=0;outlineConnect=0;rounded=1;shadow=0;comic=0;labelBackgroundColor=none;strokeWidth=1;fontFamily=Verdana;fontSize=12;align=center;" parent="1" vertex="1">
          <mxGeometry x="1460" y="230" width="100" height="580" as="geometry" />
        </mxCell>
        <mxCell id="7baba1c4bc27f4b0-8" value="PaymentForm" style="shape=umlLifeline;perimeter=lifelinePerimeter;whiteSpace=wrap;html=1;container=0;collapsible=0;recursiveResize=0;outlineConnect=0;rounded=1;shadow=0;comic=0;labelBackgroundColor=none;strokeWidth=1;fontFamily=Verdana;fontSize=12;align=center;" parent="1" vertex="1">
          <mxGeometry x="230" y="230" width="100" height="580" as="geometry" />
        </mxCell>
        <mxCell id="or7VH1FDS2Liu_N3dtBP-4" value="&lt;font style=&quot;font-size: 24px;&quot;&gt;Sequence Diagram - Payment&lt;/font&gt;&lt;div&gt;&lt;font style=&quot;font-size: 12px;&quot;&gt;Created by: Tobin Eberle&lt;/font&gt;&lt;/div&gt;" style="text;html=1;align=left;verticalAlign=middle;whiteSpace=wrap;rounded=0;" parent="1" vertex="1">
          <mxGeometry x="10" y="10" width="330" height="50" as="geometry" />
        </mxCell>
        <mxCell id="QvisIA7G4HqKEyWp4MsY-9" value="" style="shape=umlLifeline;perimeter=lifelinePerimeter;whiteSpace=wrap;html=1;container=1;dropTarget=0;collapsible=0;recursiveResize=0;outlineConnect=0;portConstraint=eastwest;newEdgeStyle={&quot;curved&quot;:0,&quot;rounded&quot;:0};participant=umlActor;" parent="1" vertex="1">
          <mxGeometry x="130" y="230" width="20" height="580" as="geometry" />
        </mxCell>
        <mxCell id="QvisIA7G4HqKEyWp4MsY-4" value="" style="html=1;points=[];perimeter=orthogonalPerimeter;rounded=0;shadow=0;comic=0;labelBackgroundColor=none;strokeWidth=1;fontFamily=Verdana;fontSize=12;align=center;" parent="1" vertex="1">
          <mxGeometry x="130" y="330" width="20" height="50" as="geometry" />
        </mxCell>
        <mxCell id="Ttm7teX-CGRO_Jp1u3ho-2" value="postCartPurchase" style="shape=umlLifeline;perimeter=lifelinePerimeter;whiteSpace=wrap;html=1;container=0;collapsible=0;recursiveResize=0;outlineConnect=0;rounded=1;shadow=0;comic=0;labelBackgroundColor=none;strokeWidth=1;fontFamily=Verdana;fontSize=12;align=center;" parent="1" vertex="1">
          <mxGeometry x="360" y="230" width="140" height="580" as="geometry" />
        </mxCell>
        <mxCell id="Ttm7teX-CGRO_Jp1u3ho-6" value="&lt;span style=&quot;background-color: initial;&quot;&gt;UserController&lt;/span&gt;" style="shape=umlLifeline;perimeter=lifelinePerimeter;whiteSpace=wrap;html=1;container=0;collapsible=0;recursiveResize=0;outlineConnect=0;rounded=1;shadow=0;comic=0;labelBackgroundColor=none;strokeWidth=1;fontFamily=Verdana;fontSize=12;align=center;" parent="1" vertex="1">
          <mxGeometry x="600" y="230" width="100" height="580" as="geometry" />
        </mxCell>
        <mxCell id="Ttm7teX-CGRO_Jp1u3ho-11" value="UserService" style="shape=umlLifeline;perimeter=lifelinePerimeter;whiteSpace=wrap;html=1;container=0;collapsible=0;recursiveResize=0;outlineConnect=0;rounded=1;shadow=0;comic=0;labelBackgroundColor=none;strokeWidth=1;fontFamily=Verdana;fontSize=12;align=center;" parent="1" vertex="1">
          <mxGeometry x="800" y="230" width="100" height="580" as="geometry" />
        </mxCell>
        <mxCell id="bkDttgfNvHvTQFwvmpQR-4" value="" style="endArrow=classic;html=1;rounded=0;" parent="1" source="QvisIA7G4HqKEyWp4MsY-4" edge="1">
          <mxGeometry width="50" height="50" relative="1" as="geometry">
            <mxPoint x="170" y="470" as="sourcePoint" />
            <mxPoint x="270" y="355" as="targetPoint" />
          </mxGeometry>
        </mxCell>
        <mxCell id="bkDttgfNvHvTQFwvmpQR-6" value="1. Checkout" style="text;html=1;align=center;verticalAlign=middle;whiteSpace=wrap;rounded=0;" parent="1" vertex="1">
          <mxGeometry x="170" y="320" width="70" height="30" as="geometry" />
        </mxCell>
        <mxCell id="bkDttgfNvHvTQFwvmpQR-8" value="2. Click pay button" style="text;html=1;align=center;verticalAlign=middle;whiteSpace=wrap;rounded=0;" parent="1" vertex="1">
          <mxGeometry x="300" y="320" width="100" height="30" as="geometry" />
        </mxCell>
        <mxCell id="Ttm7teX-CGRO_Jp1u3ho-3" value="" style="html=1;points=[];perimeter=orthogonalPerimeter;rounded=0;shadow=0;comic=0;labelBackgroundColor=none;strokeWidth=1;fontFamily=Verdana;fontSize=12;align=center;" parent="1" vertex="1">
          <mxGeometry x="420" y="330" width="20" height="100" as="geometry" />
        </mxCell>
        <mxCell id="bkDttgfNvHvTQFwvmpQR-10" value="3.&amp;nbsp;&lt;span style=&quot;background-color: initial;&quot;&gt;HTTP POST&lt;/span&gt;&lt;div&gt;&lt;div&gt;/user/cart/purchase/{applyCredits}&lt;br&gt;&lt;div&gt;&lt;br&gt;&lt;/div&gt;&lt;/div&gt;&lt;/div&gt;" style="text;html=1;align=center;verticalAlign=middle;whiteSpace=wrap;rounded=0;" parent="1" vertex="1">
          <mxGeometry x="540" y="300" height="70" as="geometry" />
        </mxCell>
        <mxCell id="bkDttgfNvHvTQFwvmpQR-11" value="" style="endArrow=classic;html=1;rounded=0;" parent="1" source="Ttm7teX-CGRO_Jp1u3ho-3" edge="1">
          <mxGeometry width="50" height="50" relative="1" as="geometry">
            <mxPoint x="490" y="340" as="sourcePoint" />
            <mxPoint x="640" y="355" as="targetPoint" />
          </mxGeometry>
        </mxCell>
        <mxCell id="Ttm7teX-CGRO_Jp1u3ho-7" value="" style="html=1;points=[];perimeter=orthogonalPerimeter;rounded=0;shadow=0;comic=0;labelBackgroundColor=none;strokeWidth=1;fontFamily=Verdana;fontSize=12;align=center;" parent="1" vertex="1">
          <mxGeometry x="640" y="330" width="20" height="100" as="geometry" />
        </mxCell>
        <mxCell id="bkDttgfNvHvTQFwvmpQR-12" value="" style="endArrow=classic;html=1;rounded=0;" parent="1" edge="1">
          <mxGeometry width="50" height="50" relative="1" as="geometry">
            <mxPoint x="659.9999999999998" y="354.28999999999996" as="sourcePoint" />
            <mxPoint x="839.9999999999998" y="354.28999999999996" as="targetPoint" />
          </mxGeometry>
        </mxCell>
        <mxCell id="bkDttgfNvHvTQFwvmpQR-13" value="4. purchaseTicketsInCart()" style="text;html=1;align=center;verticalAlign=middle;whiteSpace=wrap;rounded=0;" parent="1" vertex="1">
          <mxGeometry x="670" y="320" width="150" height="30" as="geometry" />
        </mxCell>
        <mxCell id="bkDttgfNvHvTQFwvmpQR-15" value="UserRepository" style="shape=umlLifeline;perimeter=lifelinePerimeter;whiteSpace=wrap;html=1;container=0;collapsible=0;recursiveResize=0;outlineConnect=0;rounded=1;shadow=0;comic=0;labelBackgroundColor=none;strokeWidth=1;fontFamily=Verdana;fontSize=12;align=center;" parent="1" vertex="1">
          <mxGeometry x="1000" y="230" width="100" height="580" as="geometry" />
        </mxCell>
        <mxCell id="bkDttgfNvHvTQFwvmpQR-16" value="" style="html=1;points=[];perimeter=orthogonalPerimeter;rounded=0;shadow=0;comic=0;labelBackgroundColor=none;strokeWidth=1;fontFamily=Verdana;fontSize=12;align=center;" parent="1" vertex="1">
          <mxGeometry x="1040" y="328.75" width="20" height="52.5" as="geometry" />
        </mxCell>
        <mxCell id="bkDttgfNvHvTQFwvmpQR-17" value="" style="endArrow=classic;html=1;rounded=0;exitX=1.029;exitY=0.511;exitDx=0;exitDy=0;exitPerimeter=0;" parent="1" edge="1">
          <mxGeometry width="50" height="50" relative="1" as="geometry">
            <mxPoint x="860.5799999999999" y="334.9675" as="sourcePoint" />
            <mxPoint x="1040" y="334.64" as="targetPoint" />
          </mxGeometry>
        </mxCell>
        <mxCell id="bkDttgfNvHvTQFwvmpQR-18" value="5. findById(UserID)" style="text;html=1;align=center;verticalAlign=middle;whiteSpace=wrap;rounded=0;" parent="1" vertex="1">
          <mxGeometry x="880" y="298.75" width="150" height="30" as="geometry" />
        </mxCell>
        <mxCell id="bkDttgfNvHvTQFwvmpQR-19" value="CartRepository" style="shape=umlLifeline;perimeter=lifelinePerimeter;whiteSpace=wrap;html=1;container=0;collapsible=0;recursiveResize=0;outlineConnect=0;rounded=1;shadow=0;comic=0;labelBackgroundColor=none;strokeWidth=1;fontFamily=Verdana;fontSize=12;align=center;" parent="1" vertex="1">
          <mxGeometry x="1150" y="230" width="120" height="580" as="geometry" />
        </mxCell>
        <mxCell id="bkDttgfNvHvTQFwvmpQR-20" value="" style="html=1;points=[];perimeter=orthogonalPerimeter;rounded=0;shadow=0;comic=0;labelBackgroundColor=none;strokeWidth=1;fontFamily=Verdana;fontSize=12;align=center;" parent="1" vertex="1">
          <mxGeometry x="1200" y="420.27" width="20" height="52.5" as="geometry" />
        </mxCell>
        <mxCell id="bkDttgfNvHvTQFwvmpQR-22" value="" style="endArrow=classic;html=1;rounded=0;dashed=1;" parent="1" edge="1">
          <mxGeometry width="50" height="50" relative="1" as="geometry">
            <mxPoint x="1040" y="370" as="sourcePoint" />
            <mxPoint x="860" y="370" as="targetPoint" />
          </mxGeometry>
        </mxCell>
        <mxCell id="bkDttgfNvHvTQFwvmpQR-24" value="6. User:User" style="text;html=1;align=center;verticalAlign=middle;whiteSpace=wrap;rounded=0;" parent="1" vertex="1">
          <mxGeometry x="880" y="340" width="150" height="30" as="geometry" />
        </mxCell>
        <mxCell id="bkDttgfNvHvTQFwvmpQR-26" value="" style="endArrow=classic;html=1;rounded=0;" parent="1" edge="1">
          <mxGeometry width="50" height="50" relative="1" as="geometry">
            <mxPoint x="861" y="426" as="sourcePoint" />
            <mxPoint x="1199" y="426" as="targetPoint" />
          </mxGeometry>
        </mxCell>
        <mxCell id="bkDttgfNvHvTQFwvmpQR-27" value="7. getCart()" style="text;html=1;align=center;verticalAlign=middle;whiteSpace=wrap;rounded=0;" parent="1" vertex="1">
          <mxGeometry x="880" y="390.27" width="150" height="30" as="geometry" />
        </mxCell>
        <mxCell id="bkDttgfNvHvTQFwvmpQR-28" value="" style="endArrow=classic;html=1;rounded=0;dashed=1;exitX=-0.163;exitY=0.796;exitDx=0;exitDy=0;exitPerimeter=0;" parent="1" source="bkDttgfNvHvTQFwvmpQR-20" edge="1">
          <mxGeometry width="50" height="50" relative="1" as="geometry">
            <mxPoint x="1040" y="461.52" as="sourcePoint" />
            <mxPoint x="860" y="461.52" as="targetPoint" />
          </mxGeometry>
        </mxCell>
        <mxCell id="bkDttgfNvHvTQFwvmpQR-29" value="8. User:Cart" style="text;html=1;align=center;verticalAlign=middle;whiteSpace=wrap;rounded=0;" parent="1" vertex="1">
          <mxGeometry x="880" y="431.52" width="150" height="30" as="geometry" />
        </mxCell>
        <mxCell id="bkDttgfNvHvTQFwvmpQR-30" value="" style="endArrow=classic;html=1;rounded=0;" parent="1" edge="1">
          <mxGeometry width="50" height="50" relative="1" as="geometry">
            <mxPoint x="860" y="488" as="sourcePoint" />
            <mxPoint x="870" y="530" as="targetPoint" />
            <Array as="points">
              <mxPoint x="940" y="488" />
              <mxPoint x="940" y="530" />
            </Array>
          </mxGeometry>
        </mxCell>
        <mxCell id="bkDttgfNvHvTQFwvmpQR-31" value="9. Transfer ticket from cart to user" style="text;html=1;align=center;verticalAlign=middle;whiteSpace=wrap;rounded=0;" parent="1" vertex="1">
          <mxGeometry x="940" y="472.77" width="110" height="80" as="geometry" />
        </mxCell>
        <mxCell id="bkDttgfNvHvTQFwvmpQR-32" value="TicketRepository" style="shape=umlLifeline;perimeter=lifelinePerimeter;whiteSpace=wrap;html=1;container=0;collapsible=0;recursiveResize=0;outlineConnect=0;rounded=1;shadow=0;comic=0;labelBackgroundColor=none;strokeWidth=1;fontFamily=Verdana;fontSize=12;align=center;" parent="1" vertex="1">
          <mxGeometry x="1300" y="230" width="120" height="580" as="geometry" />
        </mxCell>
        <mxCell id="bkDttgfNvHvTQFwvmpQR-37" value="" style="html=1;points=[];perimeter=orthogonalPerimeter;rounded=0;shadow=0;comic=0;labelBackgroundColor=none;strokeWidth=1;fontFamily=Verdana;fontSize=12;align=center;" parent="1" vertex="1">
          <mxGeometry x="1350" y="557.5" width="20" height="52.5" as="geometry" />
        </mxCell>
        <mxCell id="bkDttgfNvHvTQFwvmpQR-33" value="" style="endArrow=classic;html=1;rounded=0;" parent="1" edge="1">
          <mxGeometry width="50" height="50" relative="1" as="geometry">
            <mxPoint x="861" y="565.73" as="sourcePoint" />
            <mxPoint x="1350" y="566" as="targetPoint" />
          </mxGeometry>
        </mxCell>
        <mxCell id="bkDttgfNvHvTQFwvmpQR-34" value="10. saveAll()" style="text;html=1;align=center;verticalAlign=middle;whiteSpace=wrap;rounded=0;" parent="1" vertex="1">
          <mxGeometry x="1060" y="530" width="150" height="30" as="geometry" />
        </mxCell>
        <mxCell id="bkDttgfNvHvTQFwvmpQR-40" value="" style="html=1;points=[];perimeter=orthogonalPerimeter;rounded=0;shadow=0;comic=0;labelBackgroundColor=none;strokeWidth=1;fontFamily=Verdana;fontSize=12;align=center;" parent="1" vertex="1">
          <mxGeometry x="1200" y="620" width="20" height="52.5" as="geometry" />
        </mxCell>
        <mxCell id="bkDttgfNvHvTQFwvmpQR-41" value="" style="endArrow=classic;html=1;rounded=0;" parent="1" edge="1">
          <mxGeometry width="50" height="50" relative="1" as="geometry">
            <mxPoint x="860" y="625.73" as="sourcePoint" />
            <mxPoint x="1198" y="625.73" as="targetPoint" />
          </mxGeometry>
        </mxCell>
        <mxCell id="bkDttgfNvHvTQFwvmpQR-42" value="11. save(cart)" style="text;html=1;align=center;verticalAlign=middle;whiteSpace=wrap;rounded=0;" parent="1" vertex="1">
          <mxGeometry x="879" y="590" width="150" height="30" as="geometry" />
        </mxCell>
        <mxCell id="bkDttgfNvHvTQFwvmpQR-43" value="" style="endArrow=classic;html=1;rounded=0;dashed=1;entryX=1.191;entryY=0.807;entryDx=0;entryDy=0;entryPerimeter=0;" parent="1" target="Ttm7teX-CGRO_Jp1u3ho-3" edge="1">
          <mxGeometry width="50" height="50" relative="1" as="geometry">
            <mxPoint x="640" y="411.25" as="sourcePoint" />
            <mxPoint x="450" y="410" as="targetPoint" />
          </mxGeometry>
        </mxCell>
        <mxCell id="bkDttgfNvHvTQFwvmpQR-44" value="12. HTTP OK (200)" style="text;html=1;align=center;verticalAlign=middle;whiteSpace=wrap;rounded=0;" parent="1" vertex="1">
          <mxGeometry x="480" y="381.25" width="150" height="30" as="geometry" />
        </mxCell>
        <mxCell id="7baba1c4bc27f4b0-9" value="" style="html=1;points=[];perimeter=orthogonalPerimeter;rounded=0;shadow=0;comic=0;labelBackgroundColor=none;strokeWidth=1;fontFamily=Verdana;fontSize=12;align=center;" parent="1" vertex="1">
          <mxGeometry x="270" y="330" width="20" height="470" as="geometry" />
        </mxCell>
        <mxCell id="bkDttgfNvHvTQFwvmpQR-46" value="" style="html=1;points=[];perimeter=orthogonalPerimeter;rounded=0;shadow=0;comic=0;labelBackgroundColor=none;strokeWidth=1;fontFamily=Verdana;fontSize=12;align=center;" parent="1" vertex="1">
          <mxGeometry x="1500" y="710" width="20" height="52.5" as="geometry" />
        </mxCell>
        <mxCell id="bkDttgfNvHvTQFwvmpQR-7" value="" style="endArrow=classic;html=1;rounded=0;" parent="1" edge="1">
          <mxGeometry width="50" height="50" relative="1" as="geometry">
            <mxPoint x="290" y="735.54" as="sourcePoint" />
            <mxPoint x="1500" y="736" as="targetPoint" />
          </mxGeometry>
        </mxCell>
        <mxCell id="bkDttgfNvHvTQFwvmpQR-47" value="" style="endArrow=classic;html=1;rounded=0;exitX=1.061;exitY=0.052;exitDx=0;exitDy=0;exitPerimeter=0;" parent="1" source="7baba1c4bc27f4b0-9" edge="1">
          <mxGeometry width="50" height="50" relative="1" as="geometry">
            <mxPoint x="300" y="354.33000000000004" as="sourcePoint" />
            <mxPoint x="420" y="354.33000000000004" as="targetPoint" />
          </mxGeometry>
        </mxCell>
        <mxCell id="bkDttgfNvHvTQFwvmpQR-48" value="" style="endArrow=classic;html=1;rounded=0;dashed=1;entryX=0.103;entryY=1.02;entryDx=0;entryDy=0;entryPerimeter=0;" parent="1" target="bkDttgfNvHvTQFwvmpQR-49" edge="1">
          <mxGeometry width="50" height="50" relative="1" as="geometry">
            <mxPoint x="420" y="411.25" as="sourcePoint" />
            <mxPoint x="220" y="410" as="targetPoint" />
          </mxGeometry>
        </mxCell>
        <mxCell id="bkDttgfNvHvTQFwvmpQR-49" value="13. Return OK" style="text;html=1;align=center;verticalAlign=middle;whiteSpace=wrap;rounded=0;" parent="1" vertex="1">
          <mxGeometry x="275" y="381.25" width="150" height="30" as="geometry" />
        </mxCell>
        <mxCell id="bkDttgfNvHvTQFwvmpQR-50" value="14. Redirect" style="text;html=1;align=center;verticalAlign=middle;whiteSpace=wrap;rounded=0;" parent="1" vertex="1">
          <mxGeometry x="290" y="700" width="150" height="30" as="geometry" />
        </mxCell>
        <mxCell id="Q4Tr4hLiJYhCGUiusJ_s-1" value="12. Return OK" style="text;html=1;align=center;verticalAlign=middle;whiteSpace=wrap;rounded=0;" vertex="1" parent="1">
          <mxGeometry x="670" y="380" width="150" height="30" as="geometry" />
        </mxCell>
        <mxCell id="Q4Tr4hLiJYhCGUiusJ_s-3" value="" style="endArrow=classic;html=1;rounded=0;dashed=1;entryX=1.191;entryY=0.807;entryDx=0;entryDy=0;entryPerimeter=0;exitX=-0.082;exitY=0.22;exitDx=0;exitDy=0;exitPerimeter=0;" edge="1" parent="1">
          <mxGeometry width="50" height="50" relative="1" as="geometry">
            <mxPoint x="838.3600000000001" y="411.6500000000001" as="sourcePoint" />
            <mxPoint x="660" y="411.25" as="targetPoint" />
          </mxGeometry>
        </mxCell>
        <mxCell id="Q4Tr4hLiJYhCGUiusJ_s-4" value="" style="html=1;points=[];perimeter=orthogonalPerimeter;rounded=0;shadow=0;comic=0;labelBackgroundColor=none;strokeWidth=1;fontFamily=Verdana;fontSize=12;align=center;" vertex="1" parent="1">
          <mxGeometry x="840" y="327.5" width="20" height="382.5" as="geometry" />
        </mxCell>
      </root>
    </mxGraphModel>
  </diagram>
</mxfile>
